<?xml version="1.0" encoding="iso-8859-1"?>
<!-- Generator: Adobe Illustrator 18.0.0, SVG Export Plug-In . SVG Version: 6.00 Build 0)  -->
<!DOCTYPE svg PUBLIC "-//W3C//DTD SVG 1.1//EN" "http://www.w3.org/Graphics/SVG/1.1/DTD/svg11.dtd">
<svg version="1.1" id="Capa_1" xmlns="http://www.w3.org/2000/svg" xmlns:xlink="http://www.w3.org/1999/xlink" x="0px" y="0px"
	 viewBox="0 0 280.919 280.919" style="enable-background:new 0 0 280.919 280.919;" xml:space="preserve" fill="#298">
<g>
	<g>
		<path d="M213.999,23.952h-12.268V9.597c0-3.36-1.709-6.418-4.563-8.175c-2.82-1.74-6.409-1.894-9.37-0.399
			c-9.173,4.633-27.754,7.627-47.338,7.627c-19.585,0-38.166-2.994-47.343-7.629c-2.954-1.49-6.54-1.34-9.363,0.396
			c-2.859,1.762-4.566,4.819-4.566,8.18v14.355H66.92c-8.656,0-15.698,7.042-15.698,15.698v10.91
			c0,8.656,7.042,15.698,15.698,15.698h12.268v7.164c0,5.686,3.323,10.924,8.466,13.345c17.352,8.167,47.033,8.581,52.807,8.581
			c16.676,0,39.3-2.253,52.786-8.577c5.154-2.417,8.485-7.658,8.485-13.354v-7.159h12.268c8.656,0,15.698-7.042,15.698-15.698V39.65
			C229.697,30.994,222.655,23.952,213.999,23.952z M214.697,50.56c0,0.385-0.313,0.698-0.698,0.698h-19.768
			c-4.143,0-7.5,3.357-7.5,7.5v14.5c-11.3,5.231-31.962,7.09-46.271,7.09c-14.341,0-35.023-1.857-46.272-7.085V58.759
			c0-4.143-3.357-7.5-7.5-7.5H66.92c-0.385,0-0.698-0.313-0.698-0.698V39.65c0-0.385,0.313-0.698,0.698-0.698h19.768
			c4.143,0,7.5-3.357,7.5-7.5V17.579c11.762,3.854,28.312,6.07,46.272,6.07s34.512-2.216,46.271-6.069v13.872
			c0,4.143,3.357,7.5,7.5,7.5h19.768c0.385,0,0.698,0.313,0.698,0.698V50.56z"/>
	</g>
	<g>
		<path d="M212.094,116.558h-10.362v-14.355c0-3.311-1.751-6.444-4.563-8.175c-2.82-1.74-6.409-1.894-9.37-0.399
			c-9.173,4.633-27.754,7.627-47.338,7.627c-19.585,0-38.166-2.994-47.343-7.629c-2.961-1.493-6.55-1.34-9.355,0.393
			c-2.821,1.733-4.574,4.869-4.574,8.184v14.355H68.825c-9.707,0-17.604,7.896-17.604,17.604v7.101
			c0,9.706,7.896,17.603,17.604,17.603h10.362v7.164c0,5.686,3.323,10.924,8.466,13.345c17.352,8.167,47.033,8.581,52.807,8.581
			c16.678,0,39.303-2.253,52.786-8.577c5.154-2.417,8.485-7.658,8.485-13.354v-7.159h10.362c9.707,0,17.604-7.896,17.604-17.603
			v-7.101C229.697,124.454,221.801,116.558,212.094,116.558z M214.697,141.262c0,1.435-1.168,2.603-2.604,2.603h-17.862
			c-4.143,0-7.5,3.357-7.5,7.5v14.5c-11.297,5.231-31.961,7.09-46.271,7.09c-14.341,0-35.023-1.857-46.272-7.085v-14.505
			c0-4.143-3.357-7.5-7.5-7.5H68.825c-1.436,0-2.604-1.168-2.604-2.603v-7.101c0-1.436,1.168-2.604,2.604-2.604h17.862
			c4.143,0,7.5-3.357,7.5-7.5v-13.873c11.762,3.854,28.312,6.07,46.272,6.07s34.512-2.216,46.271-6.069v13.872
			c0,4.143,3.357,7.5,7.5,7.5h17.862c1.436,0,2.604,1.168,2.604,2.604V141.262z"/>
	</g>
	<g>
		<path d="M108.576,26.972c-4.143,0-7.5,3.357-7.5,7.5v28.832c0,4.143,3.357,7.5,7.5,7.5s7.5-3.357,7.5-7.5V34.472
			C116.076,30.329,112.719,26.972,108.576,26.972z"/>
	</g>
	<g>
		<path d="M108.576,120.294c-4.143,0-7.5,3.357-7.5,7.5v27.832c0,4.143,3.357,7.5,7.5,7.5s7.5-3.357,7.5-7.5v-27.832
			C116.076,123.651,112.719,120.294,108.576,120.294z"/>
	</g>
	<g>
		<path d="M212.094,209.522h-10.362v-14.356c0-3.311-1.751-6.444-4.57-8.18c-2.82-1.734-6.406-1.887-9.363-0.395
			c-9.173,4.633-27.754,7.627-47.338,7.627c-19.585,0-38.166-2.994-47.343-7.629c-2.961-1.493-6.55-1.34-9.355,0.393
			c-2.821,1.733-4.574,4.869-4.574,8.184v14.356H68.825c-9.707,0-17.604,7.896-17.604,17.603v7.101
			c0,9.707,7.896,17.604,17.604,17.604h10.362v7.163c0,5.684,3.322,10.922,8.467,13.346c17.354,8.167,47.032,8.581,52.806,8.581
			c16.677,0,39.301-2.253,52.786-8.578c5.154-2.417,8.485-7.658,8.485-13.354v-7.158h10.362c9.707,0,17.604-7.896,17.604-17.604
			v-7.101C229.697,217.419,221.801,209.522,212.094,209.522z M214.697,234.225c0,1.436-1.168,2.604-2.604,2.604h-17.862
			c-4.143,0-7.5,3.357-7.5,7.5v14.499c-11.299,5.232-31.962,7.091-46.271,7.091c-14.341,0-35.023-1.857-46.272-7.085v-14.505
			c0-4.143-3.357-7.5-7.5-7.5H68.825c-1.436,0-2.604-1.168-2.604-2.604v-7.101c0-1.436,1.168-2.603,2.604-2.603h17.862
			c4.143,0,7.5-3.357,7.5-7.5v-13.873c11.762,3.854,28.312,6.069,46.272,6.069s34.512-2.216,46.271-6.069v13.873
			c0,4.143,3.357,7.5,7.5,7.5h17.862c1.436,0,2.604,1.167,2.604,2.603V234.225z"/>
	</g>
	<g>
		<path d="M108.576,213.258c-4.143,0-7.5,3.357-7.5,7.5v27.833c0,4.143,3.357,7.5,7.5,7.5s7.5-3.357,7.5-7.5v-27.833
			C116.076,216.615,112.719,213.258,108.576,213.258z"/>
	</g>
</g>
<g>
</g>
<g>
</g>
<g>
</g>
<g>
</g>
<g>
</g>
<g>
</g>
<g>
</g>
<g>
</g>
<g>
</g>
<g>
</g>
<g>
</g>
<g>
</g>
<g>
</g>
<g>
</g>
<g>
</g>
</svg>
